<?xml version="1.0" encoding="utf-8"?>
<!-- Generator: Adobe Illustrator 25.3.1, SVG Export Plug-In . SVG Version: 6.00 Build 0)  -->
<svg version="1.1" id="Layer_1" xmlns="http://www.w3.org/2000/svg" xmlns:xlink="http://www.w3.org/1999/xlink" x="0px" y="0px"
	 viewBox="0 0 143.48 140.87" style="enable-background:new 0 0 143.48 140.87;" xml:space="preserve">
<g>
	<rect x="68.41" y="29.37" transform="matrix(0.7071 -0.7071 0.7071 0.7071 -27.1954 73.2615)" width="12.86" height="80.18"/>
	<rect x="68.41" y="29.37" transform="matrix(-0.7071 -0.7071 0.7071 -0.7071 78.6397 171.4907)" width="12.86" height="80.18"/>
	<rect x="68.41" y="29.37" width="12.86" height="80.18"/>
	<rect x="68.41" y="29.37" transform="matrix(-1.836970e-16 1 -1 -1.836970e-16 144.2953 -5.3782)" width="12.86" height="80.18"/>
	<path d="M41.67,45.37c1.87,1.87,3.03,4.46,3.03,7.31c0,5.71-4.63,10.34-10.34,10.34h24.96L41.67,45.37z"/>
	<path d="M34.75,75.89c2.65,0,5.29,1.01,7.31,3.03c4.04,4.04,4.04,10.59,0,14.63L59.71,75.9L34.75,75.89z"/>
	<path d="M50.88,102.36c1.87-1.87,4.46-3.03,7.31-3.03c5.71,0,10.34,4.63,10.34,10.34l0-24.96L50.88,102.36z"/>
</g>
</svg>
